<?xml version="1.0" encoding="utf-8"?>
<!-- Generator: Adobe Illustrator 15.1.0, SVG Export Plug-In . SVG Version: 6.00 Build 0)  -->
<!DOCTYPE svg PUBLIC "-//W3C//DTD SVG 1.1//EN" "http://www.w3.org/Graphics/SVG/1.1/DTD/svg11.dtd">
<svg version="1.1" id="Layer_1" xmlns="http://www.w3.org/2000/svg" xmlns:xlink="http://www.w3.org/1999/xlink" x="0px" y="0px"
	 width="1024px" height="768px" viewBox="0 0 1024 768" enable-background="new 0 0 1024 768" xml:space="preserve">
<path fill="none" stroke="#0000FF" stroke-miterlimit="10" d="M852.334,711.669"/>
<path fill="#603813" stroke="#42210B" stroke-width="5" stroke-miterlimit="10" d="M687,5C587-316,533-484,533-484s-6-25-10-27
	c-2.849-1.424-8.474-0.82-11.483-0.354c-2.96-0.466-8.5-1.07-11.35,0.354c-4,2-9.833,27-9.833,27s-54,168-154,489s-103,601-102,789
	s55,421,58,433s14,27.5,51,38.5s84,15,84,15H509.5h4H596c0,0,47-4,84-15s48-25.25,51-37.25s57-245.625,58-433.625S787,326,687,5z"/>
<path fill="#A67C52" stroke="#42210B" stroke-width="8" stroke-miterlimit="10" d="M747.577,452.146
	c-15.165-154.399-43.948-297.904-87.813-438.715c-53.357-171.279-119.364-374.595-146.928-460.968l-0.002-7.33
	c-0.379,1.192-0.77,2.417-1.167,3.664c-0.397-1.246-0.788-2.472-1.167-3.664l-0.002,7.33
	c-27.564,86.373-93.57,289.689-146.928,460.968c-43.865,140.811-72.648,284.316-87.813,438.715
	c-12.962,131.956-13.545,245.569-13.034,341.703c1.012,190.092,56.572,424.032,57.133,426.275c0.018,0.068,3.45,9.768,31.567,18.127
	c31.416,9.34,71.991,12.748,76.421,13.748H510h3.334h82.156c4.43-1,45.005-4.408,76.421-13.748
	c28.117-8.359,31.55-16.934,31.567-17.002c0.561-2.243,56.121-236.746,57.133-426.838
	C761.122,698.278,760.539,584.103,747.577,452.146z"/>
<line fill="none" stroke="#603813" stroke-width="4" stroke-miterlimit="10" x1="513" y1="-455" x2="513" y2="1281"/>
<path fill="none" stroke="#0000FF" stroke-miterlimit="10" d="M171,711.669"/>
<path fill="#754C24" stroke="#603813" stroke-width="3" stroke-miterlimit="10" d="M664.583,317.094
	C631.585,119.104,600.577,11.216,595.108-7.5C588.593-29.799,578.5-62.608,510.5-63.37v-0.009c0-0.001,1.148-0.009,1.109-0.009
	c-0.395,0-0.164,0.006-0.555,0.009c-0.391-0.002-1.409-0.009-1.803-0.009c-0.039,0-0.751,0.008-0.751,0.009v0.009
	c-68,0.762-75.926,33.07-82.441,55.37c-5.469,18.716-34.781,127.104-67.779,325.094S323.334,792.5,323.334,792.5H333.5l-1,417.5
	v20.091c5,1.852,10.834,4.854,17.756,6.911c31.416,9.34,73.158,11.498,77.588,12.498H510h3.334h82.156
	c4.43-1,44.005-3.158,75.421-12.498c6.922-2.058,11.589-5.06,15.589-6.911V1210l3.833-417.5H700
	C700,792.5,697.581,515.084,664.583,317.094z"/>
<path fill="none" stroke="#603813" stroke-width="4" stroke-miterlimit="10" d="M605,508.254
	c-31.559-45.607-83.436-47.053-93.333-46.854c-9.897-0.198-61.774,1.352-93.333,46.96C383.334,558.94,387.969,771,387.969,771H509
	h5.334h121.031C635.365,771,640,558.834,605,508.254z"/>
<path fill="none" stroke="#A67C52" stroke-width="5" stroke-miterlimit="10" d="M371.028,782.5h281.277l0.004-1h7.609
	c0,0-1.904-271.686-27.88-465.784c-25.975-194.1-50.008-299.727-54.312-318.075C572.598-24.221,564.5-56.244,511.5-56.991V-57
	c0-0.001,0.528-0.009,0.498-0.009c-0.311,0-0.942,0.006-1.25,0.009c-0.307-0.002-0.248-0.009-1.248-0.009c0,0,0,0.008,0,0.009v0.009
	c-53,0.747-59.931,32.42-65.06,54.281c-4.305,18.348-27.46,124.325-53.435,318.425C365.03,509.814,363.415,781.5,363.415,781.5h7.61
	L371.028,782.5z"/>
<path fill="#A67C52" d="M513.334,1051.667c59.542,0,112.571,2.364,146.75,6.047l0.416,1.288c0,0-18.166,4.001-18.166-31.333
	s-4-209.001-4-209.001S641.001,783,611.001,783c-10.968,0-16.452,0-19.001,0c0,0-32,0.665-32-23s0-77,0-77h-45.666H509h-47
	c0,0,0,53.335,0,77s-30.666,23-30.666,23c-2.549,0-8.033,0-19.001,0c-30,0-27.333,35.668-27.333,35.668s-4,173.792-4,209.126
	s-18.166,31.271-18.166,31.271l0.427-0.949C397.269,1054.223,451.824,1051.667,513.334,1051.667z"/>
<path fill="#A67C52" stroke="#603813" stroke-width="3" stroke-miterlimit="10" d="M511.334,1098.333
	c-61.974,0-116.834-2.562-150.834-6.506c0,25.552,0,120.257,0,127.173c0,7.209,123,11.169,147,11.882V1231
	c0,0,0.659-0.02,1.998-0.058c1.342,0.038,2.002,0.058,2.002,0.058v-0.118c24-0.714,147-4.674,147-11.882c0-6.878,0-100.599,0-126.76
	C624.5,1095.949,571.119,1098.333,511.334,1098.333z"/>
<path fill="none" stroke="#A67C52" stroke-width="4" stroke-miterlimit="10" d="M554,84.5c0,4.971-2.644,9.5-7.139,9.5h-68.723
	c-4.495,0-9.138-4.529-9.138-9.5v-76c0-4.971,4.644-8.5,9.138-8.5h68.723C551.356,0,554,3.529,554,8.5V84.5z"/>
<path fill="none" stroke="#A67C52" stroke-width="4" stroke-miterlimit="10" d="M554,333.75c0,3.728-2.644,7.25-7.139,7.25h-68.723
	c-4.495,0-9.138-3.522-9.138-7.25v-57c0-3.728,4.644-5.75,9.138-5.75h68.723c4.495,0,7.139,2.022,7.139,5.75V333.75z"/>
<rect x="483" y="88" fill="#A67C52" width="59" height="13"/>
<path fill="#8C6239" stroke="#754C24" stroke-width="3" stroke-miterlimit="10" d="M635.365,761.5l-74.865-1l0.149,2.345
	c0.001,0.007,0.002-0.111,0.003-0.104c1.332,12.433,12.124,17.05,20.678,18.8c0.006,0.001,0.011-0.029,0.016-0.028
	c0.443,0.091,0.88,0.157,1.31,0.232c0.011,0.002,0.021-0.004,0.031-0.002c0.425,0.074,0.841,0.138,1.249,0.198
	c0.015,0.002,0.029,0.001,0.044,0.003c0.403,0.061,0.798,0.113,1.183,0.162c0.016,0.002,0.031,0.003,0.047,0.005
	c0.381,0.048,0.751,0.09,1.109,0.127c0.02,0.002,0.038,0.003,0.058,0.005c0.353,0.036,0.695,0.068,1.023,0.095
	c0.021,0.002,0.04,0.004,0.061,0.005c0.323,0.026,0.636,0.05,0.932,0.068c0.021,0.001,0.042,0.002,0.063,0.004
	c0.291,0.018,0.57,0.033,0.831,0.045c0.022,0.002,0.042,1.008,0.063,1.008c0.256,0.012,0.499,1.033,0.723,1.033
	c0.021,0,0.038,0,0.06,0c0.219,0,0.425,0,0.608,0c0.014,0,0.023,0,0.037,0c0.185,0,0.354,0,0.5,0c0.007,0,0.012,0,0.02,0
	c0.298,0,0.511,0,0.618-0.002c0.053-0.002,0.085,0.002,0.085,0.002c2.549,0,8.033,0,19.001,0c30,0,27.333,34.918,27.333,34.918
	s4,173.417,4,208.751c0,24.604,8.808,29.884,14.157,30.975c1.279,0.046,1.559-0.028,2.831,0.016
	c0.114-0.019-0.822-0.157-0.822-0.157v0.038c16,0.524,30.736,0.88,30.736-24.115l1.097-242.425H700
	C674.333,760.5,635.365,761.5,635.365,761.5z"/>
<path fill="#8C6239" stroke="#754C24" stroke-width="3" stroke-miterlimit="10" d="M388.135,761L463,760.25l-0.149,2.47
	c-0.001,0.007-0.002-0.049-0.003-0.042c-1.332,12.433-12.124,17.081-20.678,18.831c-0.006,0.001-0.011-0.014-0.016-0.013
	c-0.443,0.091-0.88,0.165-1.31,0.24c-0.011,0.002-0.021,0-0.031,0.002c-0.425,0.074-0.841,0.14-1.249,0.2
	c-0.015,0.002-0.029,0.003-0.044,0.005c-0.403,0.061-0.798,0.113-1.183,0.162c-0.016,0.002-0.031,0.003-0.047,0.005
	c-0.381,0.048-0.751,0.09-1.109,0.127c-0.02,0.002-0.038,0.003-0.058,0.005c-0.353,0.036-0.695,0.068-1.023,0.095
	c-0.021,0.002-0.04,0.004-0.061,0.005c-0.323,0.026-0.636,0.05-0.932,0.068c-0.021,0.001-0.042,0.002-0.063,0.004
	c-0.291,0.018-0.57,0.033-0.831,0.045c-0.022,0.002-0.042,0.508-0.063,0.508c-0.256,0.012-0.499,0.533-0.723,0.533
	c-0.021,0-0.038,0-0.06,0c-0.219,0-0.425,0-0.608,0c-0.014,0-0.023,0-0.037,0c-0.185,0-0.354,0-0.5,0c-0.007,0-0.012,0-0.02,0
	c-0.298,0-0.511,0-0.618-0.002c-0.053-0.002-0.085,0.002-0.085,0.002c-2.549,0-8.033,0-19.001,0c-30,0-27.333,35.418-27.333,35.418
	s-4,173.667-4,209.001c0,24.604-8.808,30.009-14.157,31.1c-1.279,0.046-2.809,0.034-4.081,0.078
	c-0.114-0.019-0.428-0.063-0.428-0.063l1,0.022c-16,0.524-29.986,0.372-29.986-24.623L333.167,791.5H323.5
	C349.167,759.5,388.135,761,388.135,761z"/>
<path fill="none" stroke="#A67C52" stroke-width="4" stroke-miterlimit="10" d="M560,656c0,4.971-4.029,9-9,9h-80
	c-4.971,0-9-4.029-9-9V537c0-4.971,4.029-9,9-9h80c4.971,0,9,4.029,9,9V656z"/>
<line fill="none" stroke="#603813" stroke-width="4" stroke-miterlimit="10" x1="509" y1="683" x2="509" y2="1052"/>
<line fill="none" stroke="#603813" stroke-width="4" stroke-miterlimit="10" x1="511" y1="1098" x2="511" y2="1231"/>
</svg>
